<svg width="143" height="48" viewBox="0 0 143 48" fill="none" xmlns="http://www.w3.org/2000/svg">
<path d="M131.599 0.000156H11.3986C10.9604 0.000156 10.5276 0.000156 10.0906 0.002556C9.72477 0.004956 9.36189 0.011928 8.99257 0.017796C8.19026 0.0272782 7.38983 0.0981675 6.59825 0.229848C5.80777 0.364395 5.04206 0.618055 4.32701 0.982248C3.61283 1.34952 2.96027 1.82676 2.39299 2.39664C1.82274 2.96492 1.34738 3.62178 0.985213 4.34195C0.622043 5.06069 0.37022 5.83088 0.238442 6.62593C0.10541 7.41998 0.0338243 8.22318 0.0243273 9.02833C0.0132393 9.39625 0.0120683 9.7654 0.00622559 10.1334V37.8705C0.0120683 38.2431 0.0132393 38.604 0.0243273 38.9768C0.0338272 39.7819 0.105413 40.585 0.238442 41.379C0.369857 42.1745 0.621694 42.9452 0.985213 43.6642C1.34722 44.382 1.82264 45.0362 2.39299 45.6014C2.95812 46.1738 3.6111 46.6513 4.32701 47.0158C5.04206 47.381 5.80768 47.6361 6.59825 47.7728C7.38997 47.9034 8.19031 47.9743 8.99257 47.9849C9.36189 47.9931 9.72477 47.9978 10.0906 47.9978C10.5275 48.0002 10.9605 48.0002 11.3986 48.0002H131.599C132.028 48.0002 132.465 48.0002 132.894 47.9978C133.258 47.9978 133.632 47.9931 133.996 47.9849C134.796 47.9749 135.595 47.9039 136.385 47.7728C137.179 47.6352 137.947 47.3801 138.665 47.0158C139.381 46.6511 140.033 46.1736 140.598 45.6014C141.167 45.034 141.643 44.3803 142.009 43.6642C142.37 42.9447 142.62 42.1741 142.749 41.379C142.882 40.5849 142.957 39.7819 142.971 38.9768C142.976 38.604 142.976 38.2431 142.976 37.8705C142.985 37.4345 142.985 37.001 142.985 36.5579V11.4435C142.985 11.0041 142.985 10.5681 142.976 10.1334C142.976 9.7654 142.976 9.39625 142.971 9.02828C142.957 8.22306 142.882 7.42004 142.749 6.62588C142.619 5.83129 142.37 5.06116 142.009 4.3419C141.272 2.89839 140.102 1.72339 138.665 0.98214C137.947 0.618837 137.178 0.365245 136.385 0.22974C135.595 0.0974794 134.797 0.0265653 133.996 0.017628C133.632 0.011772 133.258 0.00474 132.894 0.0024C132.465 0 132.028 0.000156 131.599 0.000156Z" fill="#A6A6A6"/>
<path d="M10.0964 46.9501C9.73234 46.9501 9.3771 46.9454 9.01591 46.9372C8.26768 46.9274 7.5212 46.862 6.7826 46.7415C6.09388 46.6224 5.4267 46.4008 4.80307 46.084C4.18515 45.7699 3.62156 45.358 3.13388 44.8641C2.63915 44.376 2.22726 43.8099 1.91454 43.1883C1.59838 42.5626 1.37957 41.8919 1.26575 41.1996C1.14283 40.4558 1.07632 39.7036 1.06681 38.9496C1.05923 38.6966 1.04932 37.8539 1.04932 37.8539V10.1333C1.04932 10.1333 1.05988 9.30357 1.06687 9.05981C1.07598 8.30703 1.1421 7.55603 1.26465 6.81332C1.37868 6.11915 1.59766 5.44655 1.91399 4.8188C2.22556 4.19758 2.63517 3.63108 3.12692 3.14126C3.61812 2.64679 4.18351 2.23277 4.80248 1.9143C5.42469 1.59856 6.0906 1.37853 6.77793 1.26157C7.51896 1.13985 8.26803 1.07404 9.01885 1.0647L10.097 1.05005H132.888L133.979 1.06529C134.723 1.07417 135.466 1.13939 136.2 1.2604C136.894 1.37882 137.567 1.60039 138.196 1.91782C139.436 2.55963 140.445 3.57504 141.082 4.82173C141.393 5.44514 141.609 6.11226 141.721 6.80044C141.845 7.54924 141.915 8.30614 141.929 9.06509C141.932 9.40493 141.932 9.76997 141.932 10.1333C141.942 10.5833 141.942 11.0116 141.942 11.4434V36.5578C141.942 36.9938 141.942 37.4192 141.932 37.8481C141.932 38.2383 141.932 38.5958 141.928 38.9637C141.914 39.7091 141.846 40.4525 141.724 41.1879C141.612 41.8852 141.394 42.5611 141.078 43.1919C140.763 43.8068 140.354 44.368 139.865 44.8547C139.377 45.3513 138.812 45.7656 138.193 46.0817C137.565 46.4009 136.893 46.6233 136.2 46.7415C135.461 46.8626 134.715 46.9281 133.966 46.9372C133.617 46.9454 133.25 46.9501 132.894 46.9501L131.599 46.9524L10.0964 46.9501Z" fill="black"/>
<path d="M29.601 24.3608C29.6138 23.3592 29.8787 22.3771 30.371 21.506C30.8633 20.6348 31.567 19.9029 32.4167 19.3783C31.8769 18.6041 31.1649 17.967 30.3371 17.5175C29.5093 17.0681 28.5885 16.8187 27.6479 16.7891C25.6415 16.5776 23.6964 17.9949 22.6739 17.9949C21.6317 17.9949 20.0575 16.8101 18.3624 16.8451C17.2659 16.8807 16.1973 17.2009 15.2607 17.7746C14.3241 18.3483 13.5514 19.1558 13.018 20.1186C10.7072 24.1367 12.4308 30.0419 14.6444 33.2899C15.7519 34.8803 17.0462 36.6568 18.7398 36.5938C20.3971 36.5248 21.0161 35.5324 23.0166 35.5324C24.9986 35.5324 25.5793 36.5938 27.3073 36.5538C29.0856 36.5248 30.2061 34.9563 31.2747 33.3508C32.0705 32.2176 32.6828 30.9651 33.089 29.6398C32.0558 29.2009 31.1741 28.4663 30.5539 27.5275C29.9336 26.5888 29.6022 25.4874 29.601 24.3608Z" fill="white"/>
<path d="M26.3371 14.6531C27.3067 13.484 27.7844 11.9814 27.6688 10.4644C26.1874 10.6206 24.819 11.3317 23.8362 12.4559C23.3558 13.0051 22.9877 13.644 22.7533 14.3361C22.5188 15.0283 22.4224 15.76 22.4697 16.4896C23.2107 16.4972 23.9437 16.3359 24.6136 16.0178C25.2835 15.6997 25.8728 15.2331 26.3371 14.6531Z" fill="white"/>
<path d="M50.5504 32.5677H44.8948L43.5366 36.5954H41.1411L46.498 21.6938H48.9869L54.3438 36.5954H51.9074L50.5504 32.5677ZM45.4806 30.7091H49.9636L47.7536 24.1724H47.6917L45.4806 30.7091Z" fill="white"/>
<path d="M65.9129 31.1637C65.9129 34.5399 64.1136 36.709 61.3984 36.709C60.7106 36.7452 60.0265 36.5861 59.4246 36.2499C58.8226 35.9137 58.3271 35.4141 57.9948 34.8082H57.9434V40.1895H55.7229V25.7309H57.8722V27.5379H57.9131C58.2607 26.935 58.7646 26.438 59.3712 26.0997C59.9777 25.7615 60.6642 25.5948 61.3576 25.6172C64.1031 25.6172 65.9129 27.7969 65.9129 31.1637ZM63.6305 31.1637C63.6305 28.9641 62.4987 27.518 60.7718 27.518C59.0752 27.518 57.9341 28.9946 57.9341 31.1637C57.9341 33.3528 59.0752 34.8188 60.7718 34.8188C62.4987 34.8188 63.6305 33.3833 63.6305 31.1637Z" fill="white"/>
<path d="M77.8192 31.1637C77.8192 34.5399 76.02 36.709 73.3048 36.709C72.617 36.7452 71.9329 36.586 71.331 36.2499C70.729 35.9137 70.2335 35.4141 69.9011 34.8082H69.8498V40.1895H67.6293V25.7309H69.7786V27.5379H69.8194C70.167 26.935 70.6709 26.438 71.2775 26.0997C71.884 25.7615 72.5705 25.5948 73.2639 25.6172C76.0095 25.6172 77.8192 27.7969 77.8192 31.1637ZM75.5369 31.1637C75.5369 28.9641 74.4051 27.518 72.6782 27.518C70.9816 27.518 69.8404 28.9946 69.8404 31.1637C69.8404 33.3528 70.9816 34.8188 72.6782 34.8188C74.4051 34.8188 75.5369 33.3833 75.5369 31.1637Z" fill="white"/>
<path d="M85.6883 32.4434C85.8528 33.9212 87.2822 34.8914 89.2355 34.8914C91.1071 34.8914 92.4536 33.9211 92.4536 32.5887C92.4536 31.432 91.6415 30.7395 89.7185 30.2649L87.7956 29.7996C85.0711 29.1387 83.8062 27.859 83.8062 25.7824C83.8062 23.2113 86.0372 21.4453 89.2051 21.4453C92.3404 21.4453 94.4897 23.2113 94.562 25.7824H92.3205C92.1864 24.2953 90.9623 23.3977 89.1736 23.3977C87.3848 23.3977 86.1608 24.3059 86.1608 25.6277C86.1608 26.6813 86.9426 27.3012 88.8551 27.7757L90.4898 28.1789C93.534 28.9019 94.7989 30.1301 94.7989 32.3097C94.7989 35.0976 92.5877 36.8437 89.0709 36.8437C85.7804 36.8437 83.5588 35.1386 83.4153 32.4433L85.6883 32.4434Z" fill="white"/>
<path d="M99.5911 23.1599V25.731H101.648V27.497H99.5911V33.4865C99.5911 34.4169 100.003 34.8505 100.907 34.8505C101.151 34.8463 101.395 34.829 101.638 34.7989V36.5544C101.231 36.6307 100.818 36.6653 100.404 36.6575C98.2142 36.6575 97.3601 35.8314 97.3601 33.7243V27.497H95.7872V25.731H97.3601V23.1599H99.5911Z" fill="white"/>
<path d="M102.84 31.1638C102.84 27.7455 104.844 25.5974 107.97 25.5974C111.107 25.5974 113.102 27.7454 113.102 31.1638C113.102 34.5916 111.117 36.7302 107.97 36.7302C104.824 36.7302 102.84 34.5915 102.84 31.1638ZM110.839 31.1638C110.839 28.8189 109.769 27.4349 107.97 27.4349C106.171 27.4349 105.102 28.8294 105.102 31.1638C105.102 33.5181 106.171 34.8916 107.97 34.8916C109.769 34.8916 110.839 33.5181 110.839 31.1638Z" fill="white"/>
<path d="M114.933 25.7308H117.05V27.58H117.102C117.245 27.0025 117.582 26.4921 118.056 26.1346C118.53 25.7771 119.112 25.5944 119.704 25.6171C119.96 25.6162 120.215 25.6441 120.465 25.7003V27.7863C120.142 27.6871 119.805 27.6416 119.467 27.6515C119.144 27.6384 118.823 27.6955 118.524 27.8189C118.226 27.9424 117.957 28.1293 117.738 28.3668C117.518 28.6042 117.352 28.8867 117.251 29.1947C117.15 29.5027 117.117 29.829 117.153 30.1511V36.5953H114.933L114.933 25.7308Z" fill="white"/>
<path d="M130.702 33.4044C130.404 35.3767 128.491 36.7302 126.044 36.7302C122.897 36.7302 120.944 34.6126 120.944 31.2154C120.944 27.8076 122.908 25.5974 125.951 25.5974C128.944 25.5974 130.826 27.6623 130.826 30.9564V31.7205H123.186V31.8552C123.15 32.2551 123.2 32.6579 123.332 33.0369C123.463 33.4159 123.674 33.7624 123.949 34.0535C124.224 34.3445 124.558 34.5734 124.928 34.725C125.298 34.8766 125.696 34.9473 126.096 34.9326C126.62 34.9819 127.147 34.8599 127.597 34.5846C128.047 34.3092 128.397 33.8953 128.594 33.4044L130.702 33.4044ZM123.196 30.1619H128.604C128.624 29.8023 128.57 29.4426 128.445 29.1051C128.32 28.7677 128.127 28.4598 127.878 28.2009C127.628 27.942 127.329 27.7376 126.997 27.6005C126.666 27.4635 126.309 27.3967 125.951 27.4044C125.589 27.4023 125.231 27.4721 124.896 27.6097C124.562 27.7474 124.258 27.9503 124.001 28.2067C123.745 28.463 123.542 28.7678 123.404 29.1034C123.266 29.439 123.195 29.7987 123.196 30.1619Z" fill="white"/>
<path d="M47.0739 17.6374H42.6271V10.4773H43.7344V16.6149H47.0739V17.6374Z" fill="white"/>
<path d="M48.1929 16.1093C48.1929 15.1367 48.914 14.5759 50.194 14.4962L51.6514 14.4119V13.9455C51.6514 13.3747 51.2756 13.0525 50.5499 13.0525C49.9571 13.0525 49.5464 13.271 49.4285 13.6531H48.4006C48.5091 12.7249 49.3784 12.1296 50.5989 12.1296C51.9477 12.1296 52.7085 12.804 52.7085 13.9455V17.6374H51.6864V16.8781H51.6024C51.4318 17.1505 51.1924 17.3725 50.9085 17.5216C50.6245 17.6706 50.3063 17.7413 49.9863 17.7265C49.7604 17.7501 49.5321 17.7259 49.3162 17.6554C49.1002 17.585 48.9013 17.4699 48.7323 17.3175C48.5634 17.1652 48.4281 16.9789 48.3351 16.7708C48.2422 16.5627 48.1938 16.3374 48.1929 16.1093ZM51.6514 15.6476V15.1958L50.3375 15.2802C49.5965 15.33 49.2605 15.5831 49.2605 16.0595C49.2605 16.5458 49.6805 16.8288 50.2582 16.8288C50.4274 16.8461 50.5984 16.8289 50.7609 16.7784C50.9234 16.7279 51.0741 16.6451 51.2041 16.5349C51.3341 16.4246 51.4407 16.2893 51.5175 16.1369C51.5943 15.9844 51.6399 15.8181 51.6514 15.6476Z" fill="white"/>
<path d="M54.104 14.9333C54.104 13.2259 54.978 12.1443 56.3373 12.1443C56.6736 12.1287 57.0073 12.2096 57.2994 12.3775C57.5916 12.5453 57.8302 12.7933 57.9872 13.0923H58.0666V10.1245H59.1284V17.6374H58.1109V16.7837H58.0269C57.8577 17.0807 57.6108 17.3255 57.313 17.4917C57.0152 17.6579 56.6778 17.7391 56.3373 17.7265C54.9686 17.7265 54.104 16.6448 54.104 14.9333ZM55.2009 14.9333C55.2009 16.0794 55.7388 16.7691 56.6384 16.7691C57.5333 16.7691 58.0864 16.0695 58.0864 14.938C58.0864 13.8118 57.5275 13.1023 56.6384 13.1023C55.7446 13.1023 55.2009 13.7966 55.2009 14.9333Z" fill="white"/>
<path d="M65.4199 16.1783C65.2757 16.6722 64.9631 17.0993 64.5369 17.3851C64.1107 17.6709 63.5981 17.7971 63.0886 17.7416C62.7342 17.751 62.3819 17.6828 62.0563 17.5418C61.7307 17.4007 61.4396 17.1902 61.2031 16.9249C60.9666 16.6595 60.7905 16.3456 60.6869 16.005C60.5833 15.6644 60.5548 15.3053 60.6033 14.9525C60.5561 14.5987 60.5851 14.2387 60.6885 13.8971C60.7918 13.5555 60.967 13.2402 61.2022 12.9725C61.4375 12.7048 61.7272 12.491 62.0518 12.3456C62.3765 12.2001 62.7285 12.1264 63.0839 12.1295C64.581 12.1295 65.4841 13.1567 65.4841 14.8535V15.2256H61.6849V15.2854C61.6683 15.4836 61.6931 15.6832 61.7578 15.8713C61.8224 16.0594 61.9255 16.2319 62.0604 16.3776C62.1954 16.5234 62.3591 16.6392 62.5412 16.7177C62.7233 16.7962 62.9197 16.8356 63.1178 16.8334C63.3718 16.864 63.6291 16.818 63.857 16.7014C64.085 16.5847 64.2732 16.4027 64.3978 16.1783L65.4199 16.1783ZM61.6849 14.4369H64.4024C64.4158 14.2556 64.3913 14.0734 64.3304 13.9021C64.2695 13.7309 64.1736 13.5743 64.0489 13.4425C63.9242 13.3106 63.7734 13.2065 63.6062 13.1367C63.439 13.0668 63.2591 13.0329 63.0781 13.0371C62.8944 13.0348 62.7122 13.0694 62.5421 13.1389C62.372 13.2085 62.2174 13.3115 62.0876 13.442C61.9578 13.5724 61.8552 13.7277 61.7861 13.8985C61.7169 14.0694 61.6825 14.2525 61.6849 14.4369Z" fill="white"/>
<path d="M66.91 12.2339H67.9321V13.0923H68.0114C68.146 12.784 68.373 12.5255 68.6608 12.353C68.9486 12.1804 69.2829 12.1023 69.617 12.1296C69.8788 12.1098 70.1416 12.1495 70.3861 12.2456C70.6305 12.3417 70.8503 12.4918 71.0292 12.6848C71.208 12.8778 71.3413 13.1088 71.4192 13.3606C71.4971 13.6124 71.5176 13.8785 71.4792 14.1393V17.6373H70.4174V14.4071C70.4174 13.5388 70.0417 13.1069 69.2564 13.1069C69.0787 13.0986 68.9012 13.129 68.7363 13.196C68.5713 13.263 68.4228 13.365 68.3007 13.4951C68.1787 13.6251 68.0861 13.7802 68.0293 13.9495C67.9726 14.1189 67.9529 14.2986 67.9717 14.4763V17.6374H66.9099L66.91 12.2339Z" fill="white"/>
<path d="M75.9016 10.636C75.8934 10.4979 75.9267 10.3605 75.9972 10.2416C76.0676 10.1227 76.172 10.0278 76.2968 9.96913C76.4216 9.91051 76.5611 9.89086 76.6971 9.91275C76.8331 9.93464 76.9595 9.99705 77.0598 10.0919C77.1601 10.1867 77.2298 10.3096 77.2597 10.4447C77.2897 10.5797 77.2786 10.7207 77.2278 10.8494C77.1771 10.978 77.089 11.0884 76.9751 11.1662C76.8612 11.244 76.7266 11.2857 76.5889 11.2858C76.5008 11.2903 76.4128 11.2769 76.33 11.2463C76.2472 11.2158 76.1715 11.1688 76.1073 11.1081C76.0431 11.0474 75.9918 10.9742 75.9564 10.8931C75.9211 10.812 75.9024 10.7245 75.9016 10.636ZM76.0603 12.2338H77.1174V17.6373H76.0603V12.2338Z" fill="white"/>
<path d="M78.8309 12.2339H79.8531V13.1023H79.9324C80.0604 12.8128 80.2692 12.5668 80.5336 12.3942C80.7979 12.2215 81.1065 12.1296 81.4219 12.1296C81.7372 12.1296 82.0458 12.2215 82.3102 12.3942C82.5746 12.5668 82.7834 12.8128 82.9113 13.1023H82.9953C83.1455 12.7989 83.3799 12.5457 83.6702 12.3731C83.9604 12.2005 84.2942 12.116 84.6312 12.1296C84.867 12.1102 85.1042 12.1436 85.3255 12.2274C85.5469 12.3112 85.747 12.4433 85.9114 12.6141C86.0759 12.7849 86.2005 12.9903 86.2763 13.2153C86.3521 13.4404 86.3773 13.6796 86.35 13.9156V17.6374H85.2882V14.1939C85.2882 13.4644 84.9417 13.107 84.2451 13.107C84.095 13.1005 83.9452 13.1253 83.8052 13.1797C83.6651 13.2342 83.5377 13.3172 83.4311 13.4234C83.3245 13.5297 83.2409 13.6569 83.1856 13.7972C83.1303 13.9374 83.1045 14.0877 83.1098 14.2384V17.6375H82.0667V14.0896C82.0734 13.9536 82.0506 13.8178 82 13.6916C81.9494 13.5653 81.8721 13.4515 81.7736 13.3581C81.675 13.2647 81.5574 13.1939 81.4289 13.1506C81.3004 13.1072 81.1641 13.0923 81.0294 13.107C80.8737 13.1095 80.7201 13.1436 80.5778 13.2072C80.4356 13.2708 80.3076 13.3626 80.2014 13.477C80.0953 13.5915 80.0133 13.7263 79.9603 13.8733C79.9073 14.0203 79.8843 14.1766 79.8929 14.3328V17.6374H78.8311L78.8309 12.2339Z" fill="white"/>
</svg>
