<svg width="162" height="48" viewBox="0 0 162 48" fill="none" xmlns="http://www.w3.org/2000/svg">
<g clip-path="url(#clip0_3960_52337)">
<mask id="mask0_3960_52337" style="mask-type:luminance" maskUnits="userSpaceOnUse" x="0" y="0" width="163" height="48">
<path d="M162.006 0H0V48H162.006V0Z" fill="white"/>
</mask>
<g mask="url(#mask0_3960_52337)">
<mask id="mask1_3960_52337" style="mask-type:luminance" maskUnits="userSpaceOnUse" x="0" y="0" width="163" height="48">
<path d="M162.006 0H0V48H162.006V0Z" fill="white"/>
</mask>
<g mask="url(#mask1_3960_52337)">
<path d="M156.013 48H5.99373C2.70846 48 0 45.2915 0 42.0063V5.99373C0 2.70846 2.70846 0 5.99373 0H155.987C159.298 0 162.006 2.70846 162.006 5.99373V42.0063C162.006 45.2915 159.298 48 156.013 48Z" fill="#12100B"/>
</g>
<mask id="mask2_3960_52337" style="mask-type:luminance" maskUnits="userSpaceOnUse" x="0" y="0" width="163" height="48">
<path d="M162.006 0H0V48H162.006V0Z" fill="white"/>
</mask>
<g mask="url(#mask2_3960_52337)">
<path d="M156.013 0.952978C158.796 0.952978 161.053 3.21003 161.053 5.99373V42.0063C161.053 44.79 158.796 47.047 156.013 47.047H5.99373C3.21003 47.047 0.952978 44.79 0.952978 42.0063V5.99373C0.952978 3.21003 3.21003 0.952978 5.99373 0.952978H156.013ZM156.013 0H5.99373C2.70846 0 0 2.70846 0 5.99373V42.0063C0 45.3166 2.70846 48 5.99373 48H155.987C159.298 48 161.981 45.2915 161.981 42.0063V5.99373C162.006 2.70846 159.298 0 156.013 0Z" fill="#AFACAB"/>
</g>
<mask id="mask3_3960_52337" style="mask-type:luminance" maskUnits="userSpaceOnUse" x="0" y="0" width="163" height="48">
<path d="M162.006 0H0V48H162.006V0Z" fill="white"/>
</mask>
<g mask="url(#mask3_3960_52337)">
<path d="M81.7555 26.1067C78.9216 26.1067 76.6395 28.2634 76.6395 31.2227C76.6395 34.1568 78.9467 36.3387 81.7555 36.3387C84.5893 36.3387 86.8715 34.1819 86.8715 31.2227C86.8965 28.2383 84.5893 26.1067 81.7555 26.1067ZM81.7555 34.3073C80.2006 34.3073 78.8715 33.0283 78.8715 31.2227C78.8715 29.3919 80.2006 28.138 81.7555 28.138C83.3103 28.138 84.6395 29.3919 84.6395 31.2227C84.6395 33.0283 83.3103 34.3073 81.7555 34.3073ZM70.5956 26.1067C67.7617 26.1067 65.4796 28.2634 65.4796 31.2227C65.4796 34.1568 67.7868 36.3387 70.5956 36.3387C73.4295 36.3387 75.7116 34.1819 75.7116 31.2227C75.7116 28.2383 73.4044 26.1067 70.5956 26.1067ZM70.5956 34.3073C69.0407 34.3073 67.7116 33.0283 67.7116 31.2227C67.7116 29.3919 69.0407 28.138 70.5956 28.138C72.1505 28.138 73.4796 29.3919 73.4796 31.2227C73.4796 33.0283 72.1254 34.3073 70.5956 34.3073ZM57.3041 27.6615V29.8183H62.4953C62.3448 31.0471 61.9436 31.9249 61.3166 32.5518C60.5643 33.3042 59.3856 34.1318 57.3041 34.1318C54.1191 34.1318 51.6113 31.5738 51.6113 28.3637C51.6113 25.1788 54.094 22.5957 57.3041 22.5957C59.0345 22.5957 60.2884 23.2728 61.2163 24.1506L62.7461 22.6208C61.442 21.3919 59.7367 20.439 57.3041 20.439C52.9404 20.439 49.2539 24.0001 49.2539 28.3637C49.2539 32.7274 52.9153 36.2885 57.3041 36.2885C59.6614 36.2885 61.442 35.5111 62.8213 34.0565C64.2508 32.6271 64.7022 30.6208 64.7022 28.9907C64.7022 28.4891 64.652 28.0126 64.5768 27.6365H57.3041V27.6615ZM111.674 29.3418C111.248 28.1882 109.944 26.0816 107.31 26.0816C104.677 26.0816 102.495 28.138 102.495 31.1976C102.495 34.0565 104.652 36.3136 107.561 36.3136C109.893 36.3136 111.248 34.8841 111.824 34.0565L110.094 32.9029C109.517 33.7556 108.715 34.3073 107.586 34.3073C106.458 34.3073 105.63 33.7807 105.103 32.7524L111.925 29.9186L111.674 29.3418ZM104.702 31.0471C104.652 29.0659 106.232 28.0628 107.36 28.0628C108.263 28.0628 109.016 28.5142 109.266 29.1412L104.702 31.0471ZM99.1599 36.0126H101.392V20.9907H99.1599V36.0126ZM95.4734 27.2352H95.3981C94.8965 26.6333 93.9185 26.0816 92.7147 26.0816C90.1567 26.0816 87.8244 28.3136 87.8244 31.1976C87.8244 34.0565 90.1567 36.2885 92.7147 36.2885C93.9436 36.2885 94.8965 35.7368 95.3981 35.1349H95.4734V35.8622C95.4734 37.8183 94.4201 38.8465 92.7398 38.8465C91.3605 38.8465 90.5078 37.8684 90.1567 37.0408L88.2006 37.8434C88.7523 39.1976 90.257 40.8528 92.7147 40.8528C95.348 40.8528 97.5799 39.2979 97.5799 35.5361V26.3825H95.4483V27.2352H95.4734ZM92.9154 34.3073C91.3605 34.3073 90.0815 33.0032 90.0815 31.2227C90.0815 29.417 91.3856 28.1129 92.9154 28.1129C94.4451 28.1129 95.6489 29.417 95.6489 31.2227C95.6489 33.0032 94.4451 34.3073 92.9154 34.3073ZM122.182 20.9907H116.815V35.9876H119.047V30.2948H122.182C124.665 30.2948 127.097 28.4891 127.097 25.6302C127.097 22.7963 124.665 20.9907 122.182 20.9907ZM122.232 28.2383H119.047V23.0973H122.232C123.912 23.0973 124.865 24.4766 124.865 25.6803C124.865 26.8089 123.912 28.2383 122.232 28.2383ZM136.075 26.0816C134.445 26.0816 132.765 26.7838 132.088 28.3888L134.069 29.2164C134.495 28.3888 135.273 28.1129 136.125 28.1129C137.279 28.1129 138.458 28.8151 138.483 30.044V30.1945C138.082 29.9687 137.204 29.6176 136.15 29.6176C134.019 29.6176 131.837 30.7963 131.837 33.0032C131.837 35.0095 133.592 36.3136 135.574 36.3136C137.078 36.3136 137.906 35.6365 138.433 34.859H138.508V36.0126H140.665V30.2697C140.614 27.5612 138.633 26.0816 136.075 26.0816ZM135.799 34.3073C135.072 34.3073 134.044 33.9311 134.044 33.0283C134.044 31.8747 135.323 31.4233 136.426 31.4233C137.404 31.4233 137.881 31.6239 138.483 31.9249C138.282 33.3042 137.103 34.3073 135.799 34.3073ZM148.489 26.4076L145.931 32.9029H145.856L143.197 26.4076H140.79L144.777 35.486L142.495 40.5518H144.828L150.997 26.4076H148.489ZM128.326 36.0126H130.558V20.9907H128.326V36.0126Z" fill="white"/>
</g>
<mask id="mask4_3960_52337" style="mask-type:luminance" maskUnits="userSpaceOnUse" x="0" y="0" width="163" height="48">
<path d="M162.006 0H0V48H162.006V0Z" fill="white"/>
</mask>
<g mask="url(#mask4_3960_52337)">
<path d="M24.8528 23.2979L12.0879 36.8652C12.4891 38.3449 13.8183 39.4232 15.4233 39.4232C16.0503 39.4232 16.6522 39.2477 17.1788 38.9468L17.229 38.9217L31.5989 30.6207L24.8528 23.2979Z" fill="#E43629"/>
</g>
<mask id="mask5_3960_52337" style="mask-type:luminance" maskUnits="userSpaceOnUse" x="0" y="0" width="163" height="48">
<path d="M162.006 0H0V48H162.006V0Z" fill="white"/>
</mask>
<g mask="url(#mask5_3960_52337)">
<path d="M37.7932 20.9907L31.5738 17.3794L24.5769 23.6239L31.5988 30.6459L37.7681 27.0847C38.8465 26.5079 39.5738 25.3543 39.5738 24.0502C39.5738 22.7211 38.8716 21.5926 37.7932 20.9907Z" fill="#F9BD00"/>
</g>
<mask id="mask6_3960_52337" style="mask-type:luminance" maskUnits="userSpaceOnUse" x="0" y="0" width="163" height="48">
<path d="M162.006 0H0V48H162.006V0Z" fill="white"/>
</mask>
<g mask="url(#mask6_3960_52337)">
<path d="M12.0878 11.1348C12.0126 11.4106 11.9624 11.7116 11.9624 12.0125V35.9874C11.9624 36.2884 12.0126 36.5893 12.0878 36.8652L25.3041 23.6489L12.0878 11.1348Z" fill="#587DBE"/>
</g>
<mask id="mask7_3960_52337" style="mask-type:luminance" maskUnits="userSpaceOnUse" x="0" y="0" width="163" height="48">
<path d="M162.006 0H0V48H162.006V0Z" fill="white"/>
</mask>
<g mask="url(#mask7_3960_52337)">
<path d="M24.9531 24L31.5738 17.3793L17.2039 9.05333C16.6772 8.75238 16.0754 8.55176 15.4233 8.55176C13.8183 8.55176 12.4891 9.63013 12.0879 11.1098L24.9531 24Z" fill="#30A043"/>
</g>
</g>
<mask id="mask8_3960_52337" style="mask-type:luminance" maskUnits="userSpaceOnUse" x="0" y="0" width="163" height="48">
<path d="M162.006 0H0V48H162.006V0Z" fill="white"/>
</mask>
<g mask="url(#mask8_3960_52337)">
<path d="M50.4578 15.4734C50.0314 15.1724 49.7305 14.721 49.5549 14.1693L50.6082 13.743C50.7085 14.1191 50.8841 14.4201 51.1098 14.5956C51.3355 14.7712 51.6114 14.8715 51.9123 14.8715C52.2885 14.8715 52.5643 14.7461 52.79 14.4953C53.0157 14.2445 53.1161 13.9185 53.1161 13.4922V8.27588H54.2697V13.4169C54.2697 13.9436 54.1693 14.395 53.9687 14.7712C53.7681 15.1474 53.4922 15.4232 53.1411 15.6238C52.79 15.8245 52.3888 15.9248 51.9374 15.9248C51.3857 15.9248 50.8841 15.7743 50.4578 15.4734Z" fill="white"/>
<path d="M56.1255 8.27588H60.6647V9.35425H57.2791V11.4608H60.3387V12.5392H57.2791V14.6458H60.6647V15.7242H56.1255V8.27588Z" fill="white"/>
<path d="M63.7995 9.37933H61.6929V8.27588H67.0346V9.35425H64.9531V15.7492H63.7995V9.37933Z" fill="white"/>
<path d="M67.9124 14.5956L71.8246 9.37933H68.0879V8.27588H73.1537V9.45456L69.2666 14.6709H73.2039V15.7492H67.9124V14.5956Z" fill="white"/>
<path d="M76.2633 9.37933H74.1567V8.27588H79.4984V9.35425H77.4169V15.7492H76.2633V9.37933Z" fill="white"/>
<path d="M83.0596 8.27588H85.8683C86.2696 8.27588 86.6458 8.35111 86.9718 8.52666C87.3229 8.70221 87.5737 8.92792 87.7743 9.25394C87.9749 9.55488 88.0752 9.8809 88.0752 10.2571C88.0752 10.6332 87.9749 10.9593 87.7994 11.2351C87.6238 11.511 87.3731 11.7116 87.0721 11.8621V11.9122C87.4734 12.0376 87.7743 12.2633 88 12.5643C88.2257 12.8652 88.3511 13.2414 88.3511 13.6427C88.3511 14.0439 88.2508 14.4201 88.0251 14.7461C87.8245 15.0721 87.5235 15.2978 87.1724 15.4984C86.8213 15.674 86.4201 15.7743 85.9937 15.7743H83.0596V8.27588ZM85.8182 11.4358C86.1693 11.4358 86.4451 11.3354 86.6458 11.1097C86.8464 10.9091 86.9467 10.6583 86.9467 10.3825C86.9467 10.1066 86.8464 9.85582 86.6458 9.65519C86.4451 9.45456 86.1693 9.35425 85.8433 9.35425H84.2132V11.4358H85.8182ZM85.9937 14.6959C86.3448 14.6959 86.6458 14.5956 86.8715 14.3699C87.0972 14.1442 87.1975 13.8934 87.1975 13.5925C87.1975 13.2916 87.0721 13.0157 86.8464 12.79C86.6207 12.5643 86.3198 12.464 85.9436 12.464H84.2132V14.721H85.9937V14.6959Z" fill="white"/>
<path d="M89.8559 8.27588H94.3951V9.35425H91.0095V11.4608H94.044V12.5392H90.9844V14.6458H94.37V15.7242H89.8308V8.27588H89.8559Z" fill="white"/>
<path d="M96 8.27588H97.1536V15.7492H96V8.27588Z" fill="white"/>
</g>
</g>
<defs>
<clipPath id="clip0_3960_52337">
<rect width="162.006" height="48" fill="white"/>
</clipPath>
</defs>
</svg>
